<svg width="100" height="100" viewBox="0 0 100 100" fill="none" xmlns="http://www.w3.org/2000/svg">
<circle cx="50" cy="50" r="50" fill="#F5F6FA"/>
<path d="M70 71C71.6569 71 73 72.3431 73 74C73 75.6569 71.6569 77 70 77H31C29.3431 77 28 75.6569 28 74C28 72.3431 29.3431 71 31 71H70Z" fill="#2563EB"/>
<path d="M47.51 60.75V60.6751L35.03 49.78C33.92 48.8 32.21 48.89 31.23 50C30.21 51.11 30.34 52.79 31.45 53.77L48.44 68.61C49.45 69.53 51 69.56 52.05 68.64L69.07 53.78C70.18 52.8 70.27 51.12 69.29 50.01C68.31 48.9 66.6 48.81 65.49 49.79L52.97 60.72V25.86C52.97 24.37 51.73 23.17 50.24 23.17C48.71 23.17 47.51 24.37 47.51 25.86V60.6751L47.55 60.71L47.51 60.75Z" fill="#2563EB"/>
</svg>
