<svg width="237" height="237" viewBox="0 0 237 237" fill="none" xmlns="http://www.w3.org/2000/svg">
<path fill-rule="evenodd" clip-rule="evenodd" d="M118.016 78.7163C139.616 78.7163 157.316 96.3163 157.316 118.016C157.316 139.716 139.716 157.316 118.016 157.316C96.4163 157.316 78.7163 139.716 78.7163 118.016C78.7163 96.4163 96.3163 78.7163 118.016 78.7163Z" fill="white" fill-opacity="0.5"/>
<path fill-rule="evenodd" clip-rule="evenodd" d="M235.216 166.716C234.316 185.616 230.016 202.316 216.216 216.216C202.416 230.016 185.616 234.316 166.716 235.216C151.899 236.034 137.248 236.026 122.461 236.018C120.981 236.017 119.499 236.016 118.016 236.016C115.685 236.016 113.357 236.02 111.033 236.025C97.1065 236.049 83.2849 236.073 69.3163 235.216C50.4163 234.316 33.7163 230.016 19.8163 216.216C6.01633 202.416 1.71633 185.616 0.816327 166.716C-0.00178045 151.899 0.00640767 137.248 0.0146713 122.461C0.0154985 120.981 0.0163265 119.499 0.0163265 118.016C0.0163265 115.685 0.0122346 113.357 0.00814788 111.033C-0.0163367 97.1065 -0.040637 83.2848 0.816327 69.3163C1.71633 50.4163 6.01633 33.7163 19.8163 19.8163C33.6163 6.01633 50.4163 1.71633 69.3163 0.816327C84.1332 -0.00178045 98.7847 0.00640767 113.571 0.0146713C115.052 0.0154985 116.533 0.0163265 118.016 0.0163265C120.348 0.0163265 122.675 0.0122346 125 0.00814788C138.926 -0.0163367 152.748 -0.040637 166.716 0.816327C185.616 1.71633 202.316 6.01633 216.216 19.8163C230.016 33.6163 234.316 50.4163 235.216 69.3163C236.034 84.1333 236.026 98.7849 236.018 113.572C236.017 115.052 236.016 116.533 236.016 118.016C236.016 120.348 236.02 122.675 236.025 125C236.049 138.926 236.073 152.748 235.216 166.716ZM118.016 178.516C151.516 178.516 178.516 151.516 178.516 118.016C178.516 84.5163 151.516 57.5163 118.016 57.5163C84.5163 57.5163 57.5163 84.5163 57.5163 118.016C57.5163 151.516 84.5163 178.516 118.016 178.516ZM181.016 69.1163C188.816 69.1163 195.116 62.8163 195.116 55.0163C195.116 47.2163 188.816 40.9163 181.016 40.9163C173.216 40.9163 166.916 47.2163 166.916 55.0163C166.916 62.8163 173.216 69.1163 181.016 69.1163Z" fill="white" fill-opacity="0.5"/>
</svg>
