<svg width="237" height="237" viewBox="0 0 237 237" fill="none" xmlns="http://www.w3.org/2000/svg">
<path d="M223 13C214.4 4.4 203.9 0 191.7 0H44.3C32.1 0 21.6 4.3 13 13C4.3 21.6 0 32.1 0 44.3V191.8C0 204 4.3 214.4 13 223.1C21.7 231.8 32.1 236.1 44.3 236.1H191.8C204 236.1 214.4 231.8 223.1 223.1C231.7 214.4 236.1 204 236.1 191.8V44.2C236 32.1 231.7 21.6 223 13ZM71.9 197.6H36.4V91H71.9V197.6ZM68.7 71.2C65 74.7 60.2 76.5 54.1 76.5H54C48.2 76.5 43.4 74.7 39.8 71.2C36.2 67.7 34.3 63.3 34.3 58.1C34.3 52.8 36.2 48.4 39.9 44.9C43.6 41.4 48.5 39.7 54.4 39.7C60.3 39.7 65.1 41.4 68.7 44.9C72.3 48.4 74.1 52.8 74.2 58.1C74.2 63.3 72.4 67.7 68.7 71.2ZM199.6 197.6H164.1V140.6C164.1 124.5 158.2 116.5 146.3 116.5C141.8 116.5 138 117.8 134.9 120.3C131.8 122.8 129.5 125.9 128 129.5C127.3 131.4 126.9 134.2 126.9 138.1V197.7H91.4C91.7 133.4 91.7 97.8 91.4 91.1H126.9V106C134.4 94.3 145 88.5 158.7 88.5C171 88.5 180.9 92.5 188.3 100.6C195.8 108.7 199.5 120.6 199.5 136.4V197.6H199.6Z" fill="white" fill-opacity="0.5"/>
</svg>
