<svg width="236" height="236" viewBox="0 0 236 236" fill="none" xmlns="http://www.w3.org/2000/svg">
<path d="M196.7 0H39.3C17.7 0 0 17.7 0 39.3V196.6C0 218.2 17.7 235.9 39.3 235.9H196.6C218.2 235.9 235.9 218.2 235.9 196.6V39.3C236 17.7 218.3 0 196.7 0ZM176.7 87.9C176.7 89.2 176.8 90.5 176.8 91.8C176.8 131.8 146.4 177.9 90.7 177.9C73.6 177.9 57.7 172.9 44.3 164.3C46.7 164.6 49.1 164.7 51.5 164.7C65.7 164.7 78.7 159.9 89.1 151.7C75.9 151.5 64.7 142.7 60.8 130.7C62.7 131.1 64.5 131.3 66.5 131.3C69.3 131.3 71.9 130.9 74.5 130.2C60.7 127.4 50.2 115.2 50.2 100.5C50.2 100.4 50.2 100.2 50.2 100.1C54.3 102.4 58.9 103.7 63.9 103.9C55.8 98.5 50.4 89.2 50.4 78.7C50.4 73.2 51.9 68 54.5 63.5C69.4 81.8 91.7 93.8 116.9 95.1C116.4 92.9 116.1 90.6 116.1 88.2C116.1 71.5 129.7 57.9 146.4 57.9C155.1 57.9 163 61.6 168.5 67.5C175.4 66.2 181.9 63.6 187.7 60.2C185.4 67.3 180.6 73.2 174.4 76.9C180.5 76.2 186.3 74.5 191.8 72.1C187.7 78.3 182.6 83.7 176.7 87.9Z" fill="white" fill-opacity="0.5"/>
</svg>
